<svg width="16" height="16" viewBox="0 0 16 16" fill="none" xmlns="http://www.w3.org/2000/svg">
    <path fill-rule="evenodd" clip-rule="evenodd" d="M8.25435 0.90288C8.09745 0.810165 7.90252 0.810165 7.74562 0.90288L1.87895 4.36955C1.72672 4.4595 1.63332 4.62318 1.63332 4.80001C1.63332 4.97684 1.72672 5.14052 1.87895 5.23047L7.74562 8.69714C7.90252 8.78986 8.09745 8.78986 8.25435 8.69714L14.121 5.23047C14.2733 5.14052 14.3667 4.97684 14.3667 4.80001C14.3667 4.62318 14.2733 4.4595 14.121 4.36955L8.25435 0.90288ZM7.99999 7.68591L3.11616 4.80001L7.99999 1.91411L12.8838 4.80001L7.99999 7.68591ZM1.70286 8.01231C1.84334 7.77457 2.14995 7.69573 2.38768 7.83621L7.99999 11.1526L13.6123 7.83621C13.85 7.69573 14.1566 7.77457 14.2971 8.01231C14.4376 8.25005 14.3588 8.55666 14.121 8.69714L8.25435 12.1638C8.09745 12.2565 7.90252 12.2565 7.74562 12.1638L1.87895 8.69714C1.64122 8.55666 1.56237 8.25005 1.70286 8.01231ZM1.70285 11.2123C1.84334 10.9746 2.14994 10.8957 2.38768 11.0362L7.99998 14.3526L13.6123 11.0362C13.85 10.8957 14.1566 10.9746 14.2971 11.2123C14.4376 11.45 14.3588 11.7567 14.121 11.8971L8.25435 15.3638C8.09744 15.4565 7.90252 15.4565 7.74562 15.3638L1.87895 11.8971C1.64121 11.7567 1.56237 11.45 1.70285 11.2123Z" fill="#FF00AA"/>
</svg>