<?xml version="1.0" encoding="UTF-8" standalone="no"?>
<!DOCTYPE svg PUBLIC "-//W3C//DTD SVG 1.1//EN" "http://www.w3.org/Graphics/SVG/1.1/DTD/svg11.dtd">
<svg width="100%" height="100%" viewBox="0 0 326 305" version="1.1" xmlns="http://www.w3.org/2000/svg" xmlns:xlink="http://www.w3.org/1999/xlink" xml:space="preserve" xmlns:serif="http://www.serif.com/" style="fill-rule:evenodd;clip-rule:evenodd;stroke-linejoin:round;stroke-miterlimit:2;">
    <g transform="matrix(1,0,0,1,-93.2286,-1301.42)">
        <g transform="matrix(3.53816,0,0,1,9.09495e-13,1197.46)">
            <g id="logo" transform="matrix(0.282633,0,0,1,-2.57053e-13,-1197.46)">
                <path d="M211.017,1311.9C214.046,1304.91 219.172,1301.42 226.396,1301.42L269.736,1301.42C271.833,1301.42 273.639,1302.17 275.154,1303.69C276.668,1305.2 277.426,1307.01 277.426,1309.11C277.426,1310.04 277.193,1311.09 276.727,1312.25L158.938,1595.01C156.142,1602 151.016,1605.5 143.559,1605.5L100.918,1605.5C98.821,1605.5 97.015,1604.74 95.5,1603.23C93.986,1601.71 93.229,1599.91 93.229,1597.81C93.229,1596.88 93.462,1595.83 93.928,1594.66L211.017,1311.9ZM352.363,1311.9C355.392,1304.91 360.518,1301.42 367.742,1301.42L411.082,1301.42C413.179,1301.42 414.985,1302.17 416.5,1303.69C418.014,1305.2 418.771,1307.01 418.771,1309.11C418.771,1310.04 418.538,1311.09 418.072,1312.25L300.284,1595.01C297.488,1602 292.362,1605.5 284.905,1605.5L242.264,1605.5C240.167,1605.5 238.361,1604.74 236.846,1603.23C235.332,1601.71 234.574,1599.91 234.574,1597.81C234.574,1596.88 234.807,1595.83 235.273,1594.66L352.363,1311.9Z" style="fill:rgb(54,145,227);fill-rule:nonzero;"/>
            </g>
        </g>
    </g>
</svg>